# xmcd CD database file
#
# Track frame offsets:
#	150
#	1304
#	2922
#	16722
#	47992
#	65513
#	103317
#	104384
#	105573
#	131902
#	132942
#	157341
#
# Disc length: 2296 seconds
#
# Revision: 0
# Processed by: cddbd v1.5.1PL0 Copyright (c) Steve Scherf et al.
# Submitted via: CDex 1.51
#
DISCID=a308f60c
DTITLE=Beth Quist - Magnatune Promos - New Age
DYEAR=2004
DGENRE=New Age
TTITLE0=Promo Repeater
TTITLE1=Indian Promo
TTITLE2=Warrior Promo
TTITLE3=My Music
TTITLE4=Merry Musicians
TTITLE5=Merchandising Game
TTITLE6=Promor Repeater 2
TTITLE7=Baltic Promo
TTITLE8=Silver Promo
TTITLE9=Chirp
TTITLE10=New Age Fan
TTITLE11=If You Like
EXTD=YEAR: 2004
EXTT0=
EXTT1=
EXTT2=
EXTT3=
EXTT4=
EXTT5=
EXTT6=
EXTT7=
EXTT8=
EXTT9=
EXTT10=
EXTT11=
PLAYORDER=
